<svg xmlns="http://www.w3.org/2000/svg" viewBox="0 0 512 512" width="512" height="512"><path d="M474.462 274.702h-.001c-14.627-9.707-34.173-18.034-58.096-24.75-43.463-12.201-100.414-18.92-160.364-18.92s-116.902 6.719-160.365 18.92c-23.923 6.716-43.469 15.043-58.097 24.75C6.512 295.295 0 319.894 0 336.904s6.512 41.61 37.539 62.202c14.629 9.708 34.175 18.036 58.097 24.751C139.1 436.058 196.052 442.778 256 442.778s116.9-6.72 160.364-18.921c23.922-6.715 43.469-15.042 58.098-24.751C505.488 378.515 512 353.915 512 336.904c0-17.009-6.512-41.609-37.538-62.202zM313.284 417.098a9.447 9.447 0 0 1-9.447 9.447h-95.676c-5.216-.001-9.446-4.23-9.446-9.447v-33.779c0-5.217 4.229-9.447 9.446-9.447h95.676a9.448 9.448 0 0 1 9.447 9.447v33.779zm130.455-79.752c-.027.02-.151.088-.394.154a421.984 421.984 0 0 1-17.564 4.347C378.366 352.546 318.07 358.439 256 358.439c-62.071 0-122.367-5.893-169.783-16.592a422.206 422.206 0 0 1-17.563-4.347v-.001c-.222-.06-.345-.122-.36-.122-.001 0-.002 0-.001.002-.129-.191-.129-.757-.032-.915.027-.02.151-.088.394-.154a423.458 423.458 0 0 1 17.564-4.347C133.634 321.264 193.93 315.371 256 315.371s122.366 5.893 169.782 16.592a421.041 421.041 0 0 1 17.564 4.348c.242.065.365.138.361.12.129.191.129.757.032.915zM285.846 168.939c-16.457-16.457-43.235-16.457-59.691 0-5.534 5.533-5.534 14.505 0 20.039s14.506 5.534 20.039 0c5.408-5.406 14.206-5.406 19.613 0a14.12 14.12 0 0 0 10.019 4.15 14.13 14.13 0 0 0 10.02-4.15c5.533-5.534 5.533-14.506 0-20.039z" fill="#FFF"/><path d="M307.882 133.819c-13.858-13.858-32.283-21.49-51.882-21.49s-38.024 7.632-51.882 21.49c-5.534 5.533-5.534 14.506 0 20.039 5.533 5.533 14.506 5.533 20.039 0 17.559-17.557 46.127-17.557 63.686 0a14.124 14.124 0 0 0 10.019 4.15c3.626 0 7.253-1.383 10.02-4.15 5.534-5.533 5.534-14.506 0-20.039z" fill="#FFF"/><path d="M332.474 100.9C312.048 80.472 284.888 69.222 256 69.222s-56.048 11.25-76.475 31.678c-5.534 5.533-5.534 14.506 0 20.039 5.533 5.533 14.505 5.533 20.039 0 15.075-15.075 35.118-23.377 56.436-23.377s41.362 8.303 56.436 23.377a14.12 14.12 0 0 0 10.019 4.15c3.626 0 7.253-1.384 10.019-4.15 5.534-5.533 5.534-14.506 0-20.039z" fill="#FFF"/></svg>