<svg version="1" xmlns="http://www.w3.org/2000/svg" width="221" height="63" viewBox="0 0 2210 630"><g fill="#fafcff"><path d="M211 545c-24-8-59-28-77-46-30-29-34-39-34-82s4-54 34-82c44-41 111-60 216-60s172 19 216 60c30 28 34 39 34 82s-4 53-34 82c-18 17-55 39-81 47-60 18-215 17-274-1zm189-45c0-29-1-30-50-30s-50 1-50 30 1 30 50 30 50-1 50-30zm95-76c18-8 17-9-10-15-40-9-232-8-270 1-33 8-37 5 40 24 29 7 217-1 240-10zm483 119c-28-7-31-44-12-157l17-106h30c29 0 29 1 24 40l-5 40h48c60 0 74 15 65 72-10 70-24 96-57 107-31 11-78 13-110 4zm90-50c5-10 12-35 15-56 6-38 6-38-26-35-28 3-32 8-39 43-5 21-6 45-4 52 8 19 44 16 54-4zm228 42c-9-10-15-24-12-32s6-21 6-28c0-27 31-45 76-45 32 0 44-4 44-15s-12-15-45-15c-38 0-45-3-45-20 0-18 7-20 59-20 83 0 91 5 91 54 0 38-14 113-22 121-1 2-33 6-69 10-55 6-68 4-83-10zm102-47c3-13-3-18-22-18-20 0-26 5-26 21 0 15 5 20 22 17 13-2 24-11 26-20zm95 56c-7-3-13-15-13-26 0-18 4-20 39-14 45 7 71 0 71-20 0-10-12-14-39-14-47 0-63-17-55-59 8-41 29-51 103-51 54 0 61 2 61 20 0 17-7 20-50 20-37 0-50 4-50 14s14 16 43 18c40 3 42 4 45 39 4 49-23 71-91 75-28 2-58 1-64-2zm301-4c-33-13-36-25-25-87 13-71 36-93 98-93 60 0 83 14 83 50 0 53-8 60-67 60-47 0-54 3-51 18 3 14 13 17 51 15 36-2 47 1 47 12 0 30-87 45-136 25zm96-125c0-9-9-15-25-15s-25 6-25 15 9 15 25 15 25-6 25-15zm105 121c-16-11-17-22-12-75 6-50 4-61-8-61-8 0-15-9-15-20 0-13 7-20 19-20 13 0 21-8 23-22 2-18 11-24 36-26 31-3 32-2 26 22-5 23-3 26 21 26 21 0 26 4 21 16-3 9-6 18-6 20s-11 4-24 4c-20 0-25 6-30 45-8 49-3 65 20 65 8 0 14 9 14 20 0 16-7 20-33 20-18 0-41-6-52-14zM704 523c2-10 12-64 22-120l17-103h34c28 0 33 3 29 18-2 9-8 33-11 52l-7 35 54-52c42-42 60-53 86-53 18 0 32 3 32 7s-23 31-51 59l-52 52 24 39c12 21 29 48 37 61 14 21 13 22-26 22s-42-2-74-57l-33-58-9 58c-8 57-8 57-43 57-28 0-33-3-29-17zm446 10c0-5 7-43 15-86s15-80 15-82 27-4 60-4c57 1 60 2 60 25 0 18-5 24-22 24-37 0-47 13-58 69-5 30-10 55-10 57s-13 4-30 4c-16 0-30-3-30-7zm520-10c0-10 9-67 20-127s20-111 20-113 14-3 31-3c29 0 31 2 26 28-3 15-13 73-23 130-17 101-18 102-46 102-20 0-28-5-28-17zM315 222c-24-24 23-59 56-42 31 17 20 44-18 46-18 1-35-1-38-4z"/><path d="M291 165c2-10 16-27 32-38l27-21 28 21c15 11 29 28 31 38 2 15-1 17-20 10-30-9-48-9-78 0-19 7-22 5-20-10z"/><path d="M270 122c0-30 42-62 81-62 38 0 79 33 79 63 0 23-15 21-50-5l-30-22-30 22c-36 27-50 28-50 4z"/></g></svg>